<svg width="156" height="52" viewBox="0 0 156 52" fill="none" xmlns="http://www.w3.org/2000/svg">
  <rect width="156" height="52" rx="16" fill="#07150D"/>
  <rect x="1" y="1" width="154" height="50" rx="15" stroke="#55E68A" stroke-opacity="0.22"/>
  <circle cx="26" cy="26" r="14" fill="#25D366"/>
  <path d="M21.4 34L22.4 30.3C21.2 28.8 20.6 27 20.6 25.2C20.6 20.4 24.5 16.5 29.3 16.5C34.1 16.5 38 20.4 38 25.2C38 30 34.1 33.9 29.3 33.9C27.6 33.9 26 33.4 24.6 32.5L21.4 34Z" fill="white"/>
  <path d="M31.4 27.4C31.1 27.3 29.7 26.6 29.5 26.5C29.2 26.4 29.1 26.4 28.9 26.6C28.8 26.8 28.3 27.4 28.2 27.5C28 27.7 27.9 27.7 27.7 27.6C26.2 26.8 25.2 25.4 24.9 24.9C24.8 24.7 24.9 24.6 25 24.5C25.1 24.4 25.3 24.2 25.4 24.1C25.5 23.9 25.5 23.8 25.6 23.6C25.7 23.5 25.6 23.3 25.6 23.2C25.5 23.1 25 21.8 24.8 21.4C24.6 20.9 24.4 21 24.2 21H23.8C23.6 21 23.3 21.1 23.1 21.3C22.9 21.5 22.3 22 22.3 23.1C22.3 24.2 23.1 25.2 23.2 25.4C23.4 25.5 25.1 28.2 27.6 29.2C29.7 30 29.7 29.7 30.4 29.7C31 29.6 32.2 29 32.5 28.2C32.7 27.5 32.7 26.9 32.7 26.8C32.6 26.7 32.3 26.6 32.1 26.5" fill="#25D366"/>
  <text x="48" y="31" fill="#ECFFF1" font-family="Segoe UI, Arial, sans-serif" font-size="19.5" font-weight="700">WhatsApp</text>
</svg>
